<svg version="1.0" xmlns="http://www.w3.org/2000/svg" width="454.667" height="454.667" viewBox="0 0 341 341"><path d="M249.3 106.4c-10.4 3.4-18.6 10.6-23.1 20.5-2 4.4-2.6 7.1-2.5 13.1 0 18.2 8.9 28 40.2 44.1 6.8 3.5 14.5 8.3 17.2 10.7 8.3 7.4 9.8 16 4.4 24.3-5.4 8.4-20.2 10.9-31.8 5.6-11.6-5.3-21.8-18.2-25-31.6-1-4.3-1.5-5.1-3.4-5.1H223v46h2.3c1.6 0 2.8-.9 3.5-2.5.6-1.4 2.7-3.2 4.5-4.1 3.2-1.5 3.6-1.5 12.8 2.2 7.9 3.1 10.9 3.8 19.1 4.2 19.4.9 33.5-6.7 41.9-22.8 2.1-3.9 2.4-5.9 2.4-15 0-9.8-.2-10.9-3-15.8-5.6-10.2-14.9-17.2-40.1-30.1-12.2-6.3-19.7-12.1-21.5-16.8-3.5-9.4 2.8-19.4 13.6-21.4 16.3-3.1 33.5 10.1 38.7 29.6 1 3.8 1.6 4.5 3.7 4.5h2.4l-.7-9.2c-.3-5-.6-14.2-.6-20.5 0-10.2-.2-11.3-1.8-11.3-1.1 0-2.3 1.3-3 3.4-.7 1.9-2.1 3.8-3.2 4.1-1 .3-5.9-1-11.2-3.1-8.2-3.3-10.5-3.8-19.3-4.1-6.6-.2-11.5.2-14.2 1.1zM30 109.3c0 .7 1.7 2.1 3.8 3 2.8 1.2 4.5 2.9 6.2 6.4 1.4 2.7 12.4 29.5 24.6 59.8C83 224.3 87 233.6 88.7 233.8c1.1.2 2.3-.3 2.6-1 4.6-11.5 32-75.5 32.6-76.1.4-.4 7.4 16.8 15.6 38.3 12.9 33.8 15.2 39 17 39 1.7 0 4.6-6.9 22.4-53.8 24.5-64.8 24.8-65.5 30.1-67.8 2.2-1 4-2.4 4-3.1 0-1-3.6-1.3-16.5-1.3-13.4 0-16.5.3-16.5 1.4 0 .8 1.6 1.7 3.7 2.1 7.9 1.4 10 4.6 8.3 12.2-1.3 5.5-23.1 63.3-23.9 63.3-.9 0-25.2-63.9-25.8-67.8-.8-4.5 1.7-7 7.8-7.8 3.2-.4 4.9-1.1 4.9-2 0-1.2-5.3-1.4-30-1.4-25.2 0-30 .2-30 1.4 0 .9 1.6 1.7 4.3 2.1 6.5 1.1 9.7 5.3 15.7 20.6l5.2 13.2-8.8 21.4c-9.3 22.4-10 24-10.7 23.3-1-1-25.7-63.1-26.8-67.3-1.9-6.8-.7-9.5 4.6-10.9 2.5-.7 4.5-1.8 4.5-2.5 0-1-5.5-1.3-26.5-1.3-21.2 0-26.5.3-26.5 1.3z"/></svg>