<?xml version="1.0" standalone="no"?>
<!DOCTYPE svg PUBLIC "-//W3C//DTD SVG 20010904//EN"
 "http://www.w3.org/TR/2001/REC-SVG-20010904/DTD/svg10.dtd">
<svg version="1.0" xmlns="http://www.w3.org/2000/svg"
 width="341.000000pt" height="341.000000pt" viewBox="0 0 341.000000 341.000000"
 preserveAspectRatio="xMidYMid meet">
<metadata>
Created by potrace 1.14, written by Peter Selinger 2001-2017
</metadata>
<g transform="translate(0.000000,341.000000) scale(0.100000,-0.100000)"
fill="#000000" stroke="none">
<path d="M2493 2346 c-104 -34 -186 -106 -231 -205 -20 -44 -26 -71 -25 -131
0 -182 89 -280 402 -441 68 -35 145 -83 172 -107 83 -74 98 -160 44 -243 -54
-84 -202 -109 -318 -56 -116 53 -218 182 -250 316 -10 43 -15 51 -34 51 l-23
0 0 -230 0 -230 23 0 c16 0 28 9 35 25 6 14 27 32 45 41 32 15 36 15 128 -22
79 -31 109 -38 191 -42 194 -9 335 67 419 228 21 39 24 59 24 150 0 98 -2 109
-30 158 -56 102 -149 172 -401 301 -122 63 -197 121 -215 168 -35 94 28 194
136 214 163 31 335 -101 387 -296 10 -38 16 -45 37 -45 l24 0 -7 92 c-3 50 -6
142 -6 205 0 102 -2 113 -18 113 -11 0 -23 -13 -30 -34 -7 -19 -21 -38 -32
-41 -10 -3 -59 10 -112 31 -82 33 -105 38 -193 41 -66 2 -115 -2 -142 -11z"/>
<path d="M300 2317 c0 -7 17 -21 38 -30 28 -12 45 -29 62 -64 14 -27 124 -295
246 -598 184 -458 224 -551 241 -553 11 -2 23 3 26 10 46 115 320 755 326 761
4 4 74 -168 156 -383 129 -338 152 -390 170 -390 17 0 46 69 224 538 245 648
248 655 301 678 22 10 40 24 40 31 0 10 -36 13 -165 13 -134 0 -165 -3 -165
-14 0 -8 16 -17 37 -21 79 -14 100 -46 83 -122 -13 -55 -231 -633 -239 -633
-9 0 -252 639 -258 678 -8 45 17 70 78 78 32 4 49 11 49 20 0 12 -53 14 -300
14 -252 0 -300 -2 -300 -14 0 -9 16 -17 43 -21 65 -11 97 -53 157 -206 l52
-132 -88 -214 c-93 -224 -100 -240 -107 -233 -10 10 -257 631 -268 673 -19 68
-7 95 46 109 25 7 45 18 45 25 0 10 -55 13 -265 13 -212 0 -265 -3 -265 -13z"/>
</g>
</svg>
